<svg t="1648864366083" class="icon" viewBox="0 0 1024 1024" version="1.1" xmlns="http://www.w3.org/2000/svg"
  p-id="43365" width="200" height="200">
  <path d="M0 512c0 281.6 230.4 512 512 512s512-230.4 512-512S793.6 0 512 0 0 230.4 0 512z" fill="#D7D1D1" p-id="43366">
  </path>
  <path
    d="M512 1024c140.8 0 264.541091-55.458909 358.4-145.058909-8.541091-29.882182-17.058909-55.482182-25.6-68.282182-42.658909-51.2-221.858909-72.517818-221.858909-72.517818L512 768l-106.658909-29.858909s-179.2 25.6-221.882182 72.517818c-8.517818 12.8-17.058909 38.4-25.6 68.282182C247.458909 968.541091 371.2 1024 512 1024z"
    fill="#6B8E9D" p-id="43367"></path>
  <path
    d="M281.6 456.541091c0-29.882182 12.8-55.482182 34.141091-55.482182 21.317818 0 42.658909 17.082182 46.917818 46.941091 4.282182 29.858909-12.8 55.458909-34.117818 55.458909-21.341091 0-46.941091-17.058909-46.941091-46.917818z m145.058909 170.658909v149.341091h170.682182V627.2h-170.682182z m273.082182-123.741091c-21.341091 0-38.4-29.858909-34.141091-55.458909 4.258909-29.858909 25.6-51.2 46.941091-46.941091 21.317818 0 38.4 29.882182 34.117818 55.482182-4.258909 29.858909-25.6 51.2-46.917818 46.917818z"
    fill="#FFE5C5" p-id="43368"></path>
  <path
    d="M512 213.341091s-183.458909 8.517818-183.458909 106.658909v200.541091c0 38.4 59.717818 149.317818 119.458909 153.6 29.858909 0 64 4.258909 64 4.258909s38.4-4.258909 64-4.258909c55.458909-4.282182 115.2-115.2 115.2-153.6v-196.282182c4.258909-98.117818-179.2-110.917818-179.2-110.917818"
    fill="#FEE1B9" p-id="43369"></path>
  <path
    d="M622.941091 243.2C571.741091 217.6 512 213.341091 512 213.341091c-8.541091 0-183.458909 8.517818-183.458909 106.658909v200.541091c0 38.4 59.717818 149.317818 119.458909 153.6H512s38.4-4.282182 64-4.282182c55.458909-4.258909 119.458909-115.2 119.458909-153.6v-192c0-38.4-29.858909-68.258909-72.517818-81.058909"
    fill="#FFF0DA" p-id="43370"></path>
  <path d="M401.058909 729.6L499.2 1024h29.858909l98.141091-294.4-115.2 25.6z" fill="#FFFFFF" p-id="43371"></path>
  <path d="M524.8 819.2l25.6-25.6L512 755.2l-38.4 38.4 25.6 25.6-29.858909 149.341091L512 1011.2l46.941091-42.658909z"
    fill="#515151" p-id="43372"></path>
  <path
    d="M512 755.2l89.6-46.941091 46.941091 25.6-76.8 106.682182L512 755.2z m0 0l-89.6-46.941091-46.941091 25.6 93.882182 106.682182L512 755.2z"
    fill="#FFFFFF" p-id="43373"></path>
  <path
    d="M704 439.458909h-17.058909l-21.341091-162.117818s51.2-21.341091 64 42.658909c12.8 64-25.6 119.458909-25.6 119.458909m-392.541091 0h17.082182l21.317818-162.117818s-51.2-21.341091-64 42.658909c-8.517818 64 25.6 119.458909 25.6 119.458909"
    fill="#46382E" p-id="43374"></path>
  <path
    d="M512 349.858909c102.4 0 174.941091-12.8 221.858909-102.4 0 0-46.917818-12.8-153.6-55.458909-166.4-68.258909-302.917818 42.658909-256 119.458909 12.8 25.6 85.341091 38.4 187.741091 38.4z"
    fill="#46382E" p-id="43375"></path>
</svg>