<svg t="1648864059094" class="icon" viewBox="0 0 1024 1024" version="1.1" xmlns="http://www.w3.org/2000/svg"
  p-id="34164" width="200" height="200">
  <path
    d="M510.002302 510.002302m-510.002302 0a510.002302 510.002302 0 1 0 1020.004604 0 510.002302 510.002302 0 1 0-1020.004604 0Z"
    fill="#F9E9E6" p-id="34165"></path>
  <path
    d="M511.532309 1023.999622c126.952795 0.151112 249.608349-44.738535 344.893779-126.216125l-7.09281-43.54853C849.031055 778.934072 786.206327 717.969908 708.676532 717.781018H318.043102c-77.539239 0.245557-140.326189 61.22861-140.571745 136.529505L170.000767 900.465731c94.813206 79.777582 216.08042 123.628336 341.531542 123.533891"
    fill="#FCA183" p-id="34166"></path>
  <path
    d="M523.668475 806.200306H511.607865c-46.183542 0-96.050434-38.967954-96.050434-86.577613l12.117277-160.820726c0.160556-47.713549 37.636281-86.369834 83.942601-86.577613h11.966166c46.362987 0.122778 83.933157 38.797953 84.093712 86.577613l11.966166 160.820726c0 47.675771-49.781891 86.577613-95.984323 86.577613"
    fill="#FFFFFF" p-id="34167"></path>
  <path
    d="M523.668475 806.200306H511.607865c-46.183542 0-96.050434-38.967954-96.050434-86.577613l12.117277-160.820726c0.160556-47.713549 37.636281-86.369834 83.942601-86.577613h11.966166c46.362987 0.122778 83.933157 38.797953 84.093712 86.577613l11.966166 160.820726c0 47.675771-49.781891 86.577613-95.984323 86.577613"
    fill="#FFFFFF" p-id="34168"></path>
  <path
    d="M610.236643 651.46183l-5.987804-77.973686c-0.198334-45.437427-37.041278-82.21426-82.516484-82.374816h-11.833942c-45.475205 0.198334-82.280371 37.0035-82.440928 82.440928L415.557431 726.696614a67.490305 67.490305 0 0 0 8.575595 32.432368c5.940582 0.670559 11.918943 1.001116 17.887858 1.001116h17.604524a159.252941 159.252941 0 0 0 150.611235-108.668268"
    fill="#DCE6EA" p-id="34169"></path>
  <path
    d="M647.070143 302.223586a45.48465 45.48465 0 0 1 45.522428 45.446872v79.73036A52.643571 52.643571 0 0 1 708.336531 425.001918c31.29903 0 56.666922 27.483457 56.666922 61.389166S739.635561 547.78025 708.336531 547.78025a52.700238 52.700238 0 0 1-19.956202-3.910017 166.383529 166.383529 0 0 1-44.672423 80.646475 167.025754 167.025754 0 0 1-118.027755 48.809109h-18.747307a167.035198 167.035198 0 0 1-118.0372-48.809109 166.383529 166.383529 0 0 1-44.219088-78.644244c-4.514465 1.237228-9.246153 1.907786-14.119508 1.907786-31.29903 0-56.666922-27.483457-56.666923-61.389166s25.367892-61.389166 56.666923-61.389166c3.22057 0 6.375029 0.283335 9.444487 0.850004v-78.181464A45.475205 45.475205 0 0 1 385.523962 302.223586h261.546181z"
    fill="#FFFFFF" p-id="34170"></path>
  <path
    d="M703.727621 832.097089l-85.652053-80.202584C672.63637 763.426224 687.369769 848.039384 739.19167 868.892811c1.095561 0.54778 13.099504-2.200565 50.188004-10.993383 1.643341-1.086116-3.815573-49.432445-2.720012-47.222435 7.650035 13.72284 13.637839 28.002904 19.644533 42.292413 22.912326-29.117354 40.375182-51.085231 45.824651-85.689831l-25.641782-32.96126 31.648476 21.977321 20.173425-48.346329s-75.272562-45.040759-95.47432-99.969896c-13.628395-34.62349-19.096753-224.117678-19.096753-224.117678s-3.815573-28.361795-26.727899-80.542586c-1.633896-3.296126-2.729457-6.592252-4.363353-9.888378-62.739728-174.128008-225.874353-139.523408-225.874352-139.523408-108.026043-9.340598-157.675712 38.448507-194.773657 101.074901-8.726706 12.627279-16.905632 27.464568-24.007887 43.397418-26.727898 60.964164-40.365738 129.965587-28.919019 256.323379 0 0 12.003943 173.570783 80.750364 255.964489 22.912326-9.878933 37.097945-47.241324 60.010271-56.024697 46.939101 0.538336 27.832903 2.191121 35.473494-18.681196 10.360602-22.515657 7.631146-58.234707 1.624452-84.59427-15.271736-10.983938-28.90013-23.611218-30.543472-25.273448-9.822267-8.783373-70.389762-65.355851-76.934791-98.31711l-1.633897-3.296126c-0.54778-2.200565-0.54778-3.853351-1.086116-6.044472a29.051242 29.051242 0 0 1-21.278429-3.296126c-11.994499-7.130588-16.905632-21.420097-18.548973-34.614045-1.643341-11.522274-1.095561-25.811783 5.987805-36.247941C522.053468 412.969642 506.224507 266.296758 506.224507 266.296758 517.13289 382.756728 658.99853 426.701926 722.824374 441.529771c13.637839 25.273447 2.738901 74.715337-28.361795 76.349233-1.643341 0-2.738901 0-3.834462-0.538335-1.086116 4.391686-2.172232 8.235593-3.258348 12.636723-13.656728 50.528006-47.477437 78.011463-87.304838 112.60662-8.178926 8.235593-14.18562 8.783373-22.364546 14.827844 1.633896 21.977321-2.729457 58.225263 6.54503 76.897014 10.370047 1.652785 29.4668 7.149477 33.830153 17.585635"
    fill="#3E435C" p-id="34171"></path>
</svg>