<svg t="1658914025483" class="icon" viewBox="0 0 1024 1024" version="1.1" xmlns="http://www.w3.org/2000/svg" p-id="3426" width="200" height="200"><path d="M390 679.988v-35.864c0-111.8-70.278-134.488-70.278-134.488S250 534.068 250 644.126v35.864h140z" fill="#4988FD" p-id="3427"></path><path d="M390 699.988h-140c-11.046 0-20-8.956-20-20v-35.864c0-122.828 79.714-152.174 83.108-153.364a20.012 20.012 0 0 1 12.758-0.158c3.434 1.11 84.132 28.598 84.132 153.522v35.864c0.002 11.046-8.952 20-19.998 20z m-120-40h100v-15.864c0-76.286-35.178-104.09-49.982-112.408-14.948 8.808-50.018 37.46-50.018 112.41v15.862z" fill="#4988FD" p-id="3428"></path><path d="M776 679.988v-35.864c0-111.8-70.278-134.488-70.278-134.488S636 534.068 636 644.126v35.864h140z" fill="#4988FD" p-id="3429"></path><path d="M776 699.988h-140c-11.044 0-20-8.956-20-20v-35.864c0-122.828 79.714-152.174 83.11-153.364a20.026 20.026 0 0 1 12.758-0.158c3.436 1.11 84.132 28.598 84.132 153.522v35.864c0 11.046-8.956 20-20 20z m-120-40h100v-15.864c0-76.286-35.178-104.09-49.982-112.408-14.948 8.808-50.018 37.46-50.018 112.41v15.862z" fill="#4988FD" p-id="3430"></path><path d="M693.146 651.988v-92.516c0-288.398-181.292-346.924-181.292-346.924S332 275.57 332 559.476c0.012 56.328 0 92.514 0 92.514l361.146-0.002z" fill="#4988FD" p-id="3431"></path><path d="M332 671.99a19.996 19.996 0 0 1-20-20.006c0-0.004 0.012-36.184 0-92.504 0-152.884 51.604-243.788 94.894-293.124 47.876-54.564 96.308-71.968 98.346-72.684a20.012 20.012 0 0 1 12.758-0.158c2.06 0.666 51.034 16.918 99.41 71.014 43.676 48.838 95.738 139.654 95.738 294.944v92.516c0 11.044-8.956 20-20 20L332 671.99z m180.098-437.812c-13.256 6.236-45.196 23.814-76.73 60.39C380.828 357.83 352 449.434 352 559.476c0.006 31.314 0.006 56.404 0.004 72.514l321.142-0.002v-72.516c0-111.762-29.016-203.89-83.91-266.424-31.678-36.086-63.762-52.93-77.138-58.87z" fill="#4988FD" p-id="3432"></path><path d="M497.858 864.994l-42.426-42.426c-31.244-31.244-31.244-81.894 0-113.138 31.242-31.242 81.894-31.242 113.136 0 31.242 31.24 31.244 81.894 0 113.138l-42.426 42.426c-7.81 7.81-20.474 7.81-28.284 0z" fill="#DFECFD" p-id="3433"></path><path d="M512 870.852a19.868 19.868 0 0 1-14.142-5.86l-42.426-42.424c-15.11-15.11-23.432-35.2-23.432-56.57s8.322-41.46 23.432-56.568S490.632 686 512 685.996c21.37 0.002 41.46 8.324 56.568 23.434S592 744.63 592 766s-8.322 41.46-23.432 56.57l-42.428 42.428a19.864 19.864 0 0 1-14.14 5.856zM512 688c-20.832-0.002-40.42 8.112-55.154 22.844S434 745.164 434 766c0 20.834 8.112 40.422 22.846 55.156l42.426 42.426a17.88 17.88 0 0 0 12.728 5.272 17.88 17.88 0 0 0 12.726-5.27l42.428-42.428c14.732-14.732 22.846-34.32 22.846-55.156 0-20.834-8.114-40.42-22.846-55.154S532.834 688 512 688z" fill="#DFECFD" p-id="3434"></path><path d="M312.576 803.972l-22.274-22.274c-16.402-16.402-16.402-42.996 0-59.398 16.4-16.4 42.994-16.4 59.396 0 16.402 16.402 16.404 42.996 0 59.398l-22.272 22.274a10.5 10.5 0 0 1-14.85 0z" fill="#DFECFD" p-id="3435"></path><path d="M320 806.896a10.784 10.784 0 0 1-7.68-3.18l-22.02-22.02c-16.374-16.374-16.374-43.02 0-59.396A41.728 41.728 0 0 1 320 710c11.22 0 21.764 4.366 29.7 12.3 16.374 16.376 16.374 43.022 0 59.398l-22.02 22.02a10.784 10.784 0 0 1-7.68 3.178zM320 712a39.744 39.744 0 0 0-28.284 11.714c-15.596 15.596-15.596 40.974 0 56.57l22.02 22.02c1.674 1.674 3.898 2.594 6.264 2.592s4.59-0.92 6.264-2.594l22.02-22.02c15.596-15.594 15.596-40.972 0-56.568A39.744 39.744 0 0 0 320 712z" fill="#DFECFD" p-id="3436"></path><path d="M698.576 803.972l-22.274-22.274c-16.4-16.4-16.4-42.994 0-59.398 16.4-16.4 42.994-16.4 59.396 0 16.402 16.402 16.4 42.996 0 59.398l-22.274 22.274a10.498 10.498 0 0 1-14.848 0z" fill="#DFECFD" p-id="3437"></path><path d="M706 806.896a10.784 10.784 0 0 1-7.68-3.18l-22.02-22.02c-16.37-16.374-16.37-43.02 0-59.396 7.936-7.934 18.482-12.3 29.7-12.3s21.764 4.366 29.7 12.3c16.374 16.376 16.372 43.02 0 59.398l-22.02 22.02a10.784 10.784 0 0 1-7.68 3.178zM706 712a39.736 39.736 0 0 0-28.284 11.714c-15.594 15.596-15.594 40.974 0 56.57l22.02 22.02c1.672 1.672 3.896 2.592 6.264 2.592s4.592-0.92 6.264-2.594l22.02-22.02c15.596-15.594 15.594-40.972 0-56.568A39.736 39.736 0 0 0 706 712z" fill="#DFECFD" p-id="3438"></path><path d="M512 352c22.092 0 40 17.908 40 40v80c0 22.092-17.908 40-40 40s-40-17.908-40-40v-80c0-22.092 17.908-40 40-40z" fill="#DFECFD" p-id="3439"></path><path d="M512 512c-22.056 0-40-17.944-40-40v-80c0-22.056 17.944-40 40-40s40 17.944 40 40v80c0 22.056-17.944 40-40 40z m0-158c-20.954 0-38 17.046-38 38v80c0 20.954 17.046 38 38 38s38-17.046 38-38v-80c0-20.954-17.046-38-38-38z" fill="#DFECFD" p-id="3440"></path></svg>