<?xml version="1.0" standalone="no"?><!DOCTYPE svg PUBLIC "-//W3C//DTD SVG 1.1//EN" "http://www.w3.org/Graphics/SVG/1.1/DTD/svg11.dtd"><svg t="1627364345844" class="icon" viewBox="0 0 1024 1024" version="1.1" xmlns="http://www.w3.org/2000/svg" p-id="15116" xmlns:xlink="http://www.w3.org/1999/xlink" width="128" height="128"><defs><style type="text/css">@font-face { font-family: feedback-iconfont; src: url("//at.alicdn.com/t/font_1031158_1uhr8ri0pk5.eot?#iefix") format("embedded-opentype"), url("//at.alicdn.com/t/font_1031158_1uhr8ri0pk5.woff2") format("woff2"), url("//at.alicdn.com/t/font_1031158_1uhr8ri0pk5.woff") format("woff"), url("//at.alicdn.com/t/font_1031158_1uhr8ri0pk5.ttf") format("truetype"), url("//at.alicdn.com/t/font_1031158_1uhr8ri0pk5.svg#iconfont") format("svg"); }
</style></defs><path d="M0 128a51.2 51.2 0 0 1 51.2-51.2h350.24a51.2 51.2 0 0 1 47.0592 31.0336L473.6 166.4h499.2a51.2 51.2 0 0 1 51.2 51.2v537.6a51.2 51.2 0 0 1-51.2 51.2H51.2a51.2 51.2 0 0 1-51.2-51.2V128z" fill="#FFA000" p-id="15117"></path><path d="M89.6 249.6m51.2 0l742.4 0q51.2 0 51.2 51.2l0 460.8q0 51.2-51.2 51.2l-742.4 0q-51.2 0-51.2-51.2l0-460.8q0-51.2 51.2-51.2Z" fill="#FFFFFF" p-id="15118"></path><path d="M0 332.8m51.2 0l921.6 0q51.2 0 51.2 51.2l0 512q0 51.2-51.2 51.2l-921.6 0q-51.2 0-51.2-51.2l0-512q0-51.2 51.2-51.2Z" fill="#FFCA28" p-id="15119"></path></svg>