<svg t="1640574422482" class="icon" viewBox="0 0 1024 1024" version="1.1" xmlns="http://www.w3.org/2000/svg" p-id="3140"
  width="128" height="128">
  <path
    d="M913.29536 941.04064c0.0256 24.82688-16.54784 44.96384-37.0176 44.98432l-708.23936 0.6912c-20.46464 0.02048-37.07904-20.08576-37.10464-44.91264l-0.83968-859.02848c-0.0256-24.82688 16.54784-44.96384 37.0176-44.98432l521.10848-0.50688 224.39424 210.50368 0.68096 693.25312z"
    fill="#e6e6e6" p-id="3141"></path>
  <path
    d="M913.29536 253.26592l-189.11744 0.18432c-20.46464 0.02048-37.07904-20.08576-37.10464-44.91264l-0.16384-165.77024 226.38592 210.49856z"
    fill="#C4BCB1" p-id="3142"></path>
  <path
    d="M720.72192 396.84096a22.54848 22.54848 0 0 1-22.54848 22.54848H326.13376a22.54848 22.54848 0 0 1 0-45.09696h372.0448a22.54848 22.54848 0 0 1 22.54336 22.54848zM720.72192 565.95456a22.54848 22.54848 0 0 1-22.54848 22.54848H326.13376a22.54848 22.54848 0 0 1 0-45.09696h372.0448a22.54848 22.54848 0 0 1 22.54336 22.54848zM720.72192 746.33728a22.54848 22.54848 0 0 1-22.54848 22.54848H326.13376a22.54848 22.54848 0 0 1 0-45.09696h372.0448a22.54848 22.54848 0 0 1 22.54336 22.54848z"
    fill="#8a8a8a" p-id="3143"></path>
</svg>