<?xml version="1.0" standalone="no"?><!DOCTYPE svg PUBLIC "-//W3C//DTD SVG 1.1//EN" "http://www.w3.org/Graphics/SVG/1.1/DTD/svg11.dtd"><svg t="1718198196448" class="icon" viewBox="0 0 1024 1024" version="1.1" xmlns="http://www.w3.org/2000/svg" p-id="1559" width="32" height="32" xmlns:xlink="http://www.w3.org/1999/xlink"><path d="M172.0576 206.4128L51.2 810.2656h165.9392l75.4176-404.352s65.3568-57.0112 115.6352-51.84c50.2784 5.1968 50.2784 57.472 50.2784 57.472L388.096 810.752h166.016l80.384-404.8128s55.296-57.0112 110.592-51.84c55.3216 5.1968 45.2608 62.6688 45.2608 62.6688l-75.4176 393.5232h170.9568l85.4784-460.928c10.0608-73.0112-33.024-136.192-90.496-142.9248-57.472-6.7072-115.6608 7.68-165.9392 39.2448-50.2784 31.5648-80.4608 72.576-80.4608 72.576S608.512 213.12 528.896 206.4128c-79.6416-6.7072-115.6608 12.8768-150.8352 33.6128a208.8192 208.8192 0 0 0-55.296 47.104l13.824-80.7168z" fill="#389FD6" p-id="1560"></path></svg>