<?xml version="1.0" standalone="no"?><!DOCTYPE svg PUBLIC "-//W3C//DTD SVG 1.1//EN" "http://www.w3.org/Graphics/SVG/1.1/DTD/svg11.dtd"><svg t="1718198445579" class="icon" viewBox="0 0 1024 1024" version="1.1" xmlns="http://www.w3.org/2000/svg" p-id="6888" width="32" height="32" xmlns:xlink="http://www.w3.org/1999/xlink"><path d="M847.872 240.128v688c0 26.56-21.408 48-48 48h-576c-26.56 0-48-21.44-48-48v-832c0-26.592 21.44-48 48-48h432z" fill="#E9EDED" p-id="6889"></path><path d="M160 768.128v160c0 35.456 28.544 64 64 64h576c35.456 0 64-28.544 64-64v-160H160z" fill="#F8B84E" p-id="6890"></path><path d="M847.872 240.128h-144c-26.56 0-48-21.44-48-48v-144" fill="#F8B84E" p-id="6891"></path><path d="M336 288v48H288v32h48V416h32v-48H416v-32h-48V288h-32z m96 96c-13.344 0-24.8 6.176-33.312 14.688-8.512 8.512-14.688 19.968-14.688 33.312v32c0 12.704 5.664 23.616 13.568 32-7.904 8.384-13.568 19.296-13.568 32v32c0 12.704 5.664 23.616 13.568 32-7.904 8.384-13.568 19.296-13.568 32v32c0 13.344 6.176 24.8 14.688 33.312 8.512 8.512 19.968 14.688 33.312 14.688h160c13.344 0 24.8-6.176 33.312-14.688 8.512-8.512 14.688-19.968 14.688-33.312v-32c0-12.704-5.664-23.616-13.568-32 7.904-8.384 13.568-19.296 13.568-32v-32c0-12.704-5.664-23.616-13.568-32 7.904-8.384 13.568-19.296 13.568-32v-32c0-13.344-6.176-24.8-14.688-33.312-8.512-8.512-19.968-14.688-33.312-14.688h-160z m0 32h160c2.656 0 7.2 1.824 10.688 5.312 3.488 3.488 5.312 8 5.312 10.688v32a17.44 17.44 0 0 1-5.312 10.688 17.408 17.408 0 0 1-10.688 5.312h-160a17.408 17.408 0 0 1-10.688-5.312A17.408 17.408 0 0 1 416 464v-32c0-2.656 1.824-7.2 5.312-10.688A17.408 17.408 0 0 1 432 416z m0 96h160c2.656 0 7.2 1.824 10.688 5.312 3.488 3.488 5.312 8 5.312 10.688v32a17.44 17.44 0 0 1-5.312 10.688 17.408 17.408 0 0 1-10.688 5.312h-160a17.408 17.408 0 0 1-10.688-5.312A17.408 17.408 0 0 1 416 560v-32c0-2.656 1.824-7.2 5.312-10.688A17.408 17.408 0 0 1 432 512z m0 96h160c2.656 0 7.2 1.824 10.688 5.312 3.488 3.488 5.312 8 5.312 10.688v32a17.44 17.44 0 0 1-5.312 10.688 17.408 17.408 0 0 1-10.688 5.312h-160a17.408 17.408 0 0 1-10.688-5.312A17.408 17.408 0 0 1 416 656v-32c0-2.656 1.824-7.2 5.312-10.688A17.408 17.408 0 0 1 432 608z" fill="#F8B84E" p-id="6892"></path><path d="M623.872 799.936a16 16 0 0 0-15.744 16.256v126.432a16 16 0 0 0 0.256 4.32 16 16 0 0 0 0 0.064 16 16 0 0 0 0.352 1.44 16 16 0 0 0 0 0.064 16 16 0 0 0 0.128 0.416 16 16 0 0 0 0.448 1.12 16 16 0 0 0 0.864 1.824 16 16 0 0 0 0.64 0.992 16 16 0 0 0 1.76 2.144 16 16 0 0 0 0.352 0.416 16 16 0 0 0 0.192 0.192 16 16 0 0 0 1.056 0.896 16 16 0 0 0 0.384 0.32 16 16 0 0 0 1.12 0.736 16 16 0 0 0 2.432 1.248 16 16 0 0 0 0.896 0.32 16 16 0 0 0 5.376 0.864H688a16 16 0 1 0 0-32h-47.872v-111.808a16 16 0 0 0-16.256-16.256zM496.128 800a80.256 80.256 0 0 0-80 80c0 44 36 80 80 80 16.224 0 31.296-4.992 43.936-13.376l8.576 8.576a16 16 0 1 0 22.624-22.624l-8.512-8.512c8.416-12.672 13.376-27.808 13.376-44.064 0-44-36-80-80-80z m-193.6 0.128a16 16 0 0 0-2.016 0.384c-24.64 1.92-44.384 22.528-44.384 47.616 0 25.28 20.064 46.08 44.992 47.68a16 16 0 0 0 3.008 0.32h32c9.152 0 16 6.848 16 16 0 9.152-6.848 16-16 16h-64a16 16 0 1 0 0 32h64a16 16 0 0 0 3.296-0.384 48.096 48.096 0 0 0 44.704-47.616c0-25.152-19.84-45.888-44.576-47.68a16 16 0 0 0-3.424-0.32h-30.88a16 16 0 0 0-1.12 0 15.616 15.616 0 0 1-16-16c0-9.152 6.848-16 16-16h64a16 16 0 1 0 0-32H305.248a16 16 0 0 0-1.12 0 16 16 0 0 0-1.6 0z m193.6 31.872a47.776 47.776 0 0 1 43.2 68.672 16 16 0 0 0-11.2-4.672 16 16 0 0 0-11.456 27.264 47.744 47.744 0 0 1-68.576-43.264c0-26.688 21.344-48 48-48z" fill="#E9EDED" p-id="6893"></path></svg>