<svg width="14" height="14" viewBox="0 0 14 14" fill="none" xmlns="http://www.w3.org/2000/svg">
<path d="M1 3C1 1.89543 1.89543 1 3 1H11C12.1046 1 13 1.89543 13 3V11C13 12.1046 12.1046 13 11 13H3C1.89543 13 1 12.1046 1 11V3Z" fill="#86909C"/>
<path d="M5.01758 4V10H3.74902V4H5.01758Z" fill="white"/>
<path d="M8.18823 10H6.06128V4H8.20581C8.80933 4 9.32886 4.12012 9.7644 4.36035C10.2 4.59863 10.5349 4.94141 10.7693 5.38867C11.0056 5.83594 11.1238 6.37109 11.1238 6.99414C11.1238 7.61914 11.0056 8.15625 10.7693 8.60547C10.5349 9.05469 10.198 9.39941 9.75854 9.63965C9.32104 9.87988 8.79761 10 8.18823 10ZM7.32983 8.91309H8.1355C8.5105 8.91309 8.82593 8.84668 9.08179 8.71387C9.3396 8.5791 9.53296 8.37109 9.66186 8.08984C9.79272 7.80664 9.85815 7.44141 9.85815 6.99414C9.85815 6.55078 9.79272 6.18848 9.66186 5.90723C9.53296 5.62598 9.34058 5.41895 9.08472 5.28613C8.82886 5.15332 8.51343 5.08691 8.13843 5.08691H7.32983V8.91309Z" fill="white"/>
</svg>
