<svg width="48" height="48" viewBox="0 0 48 48" fill="none" xmlns="http://www.w3.org/2000/svg">
<path d="M10 6H38L44 15H4L10 6Z" fill="#94C2FF"/>
<rect x="4" y="15" width="40" height="25" fill="#4785FF"/>
<path d="M14.7539 20H17.3496V28.6367H15.668V22.7949C15.668 22.627 15.6699 22.3926 15.6738 22.0918C15.6777 21.7871 15.6797 21.5527 15.6797 21.3887L14.0449 28.6367H12.293L10.6699 21.3887C10.6699 21.5527 10.6719 21.7871 10.6758 22.0918C10.6797 22.3926 10.6816 22.627 10.6816 22.7949V28.6367H9V20H11.625L13.1953 26.791L14.7539 20Z" fill="white"/>
<path d="M18.5454 20.0117H24.6684V21.5293H20.3384V23.5156H24.1294V25.0156H20.3384V28.6367H18.5454V20.0117Z" fill="white"/>
<path d="M27.1064 25.373H29.2978L28.2197 21.9746L27.1064 25.373ZM27.2177 20H29.2568L32.3154 28.6367H30.3584L29.8017 26.8613H26.6201L26.0224 28.6367H24.1357L27.2177 20Z" fill="white"/>
</svg>
