<svg width="48" height="48" viewBox="0 0 48 48" fill="none" xmlns="http://www.w3.org/2000/svg">
<path fill-rule="evenodd" clip-rule="evenodd" d="M32 27V14C32 9.58172 28.4183 6 24 6C19.5817 6 16 9.58172 16 14V27C16 31.4183 19.5817 35 24 35C28.4183 35 32 31.4183 32 27ZM24 3C17.9249 3 13 7.92487 13 14V27C13 33.0751 17.9249 38 24 38C30.0751 38 35 33.0751 35 27V14C35 7.92487 30.0751 3 24 3Z" fill="#94C2FF"/>
<path d="M6 13H42V41H6V13Z" fill="#4785FF"/>
<path fill-rule="evenodd" clip-rule="evenodd" d="M24 27C25.3807 27 26.5 25.8807 26.5 24.5C26.5 23.1193 25.3807 22 24 22C22.6193 22 21.5 23.1193 21.5 24.5C21.5 25.8807 22.6193 27 24 27ZM24 30C27.0376 30 29.5 27.5376 29.5 24.5C29.5 21.4624 27.0376 19 24 19C20.9624 19 18.5 21.4624 18.5 24.5C18.5 27.5376 20.9624 30 24 30Z" fill="white"/>
<path d="M22.5 27H25.5V35H22.5V27Z" fill="white"/>
</svg>
