<svg width="14" height="14" viewBox="0 0 14 14" fill="none" xmlns="http://www.w3.org/2000/svg">
<path fill-rule="evenodd" clip-rule="evenodd" d="M7.00033 1.16666C10.222 1.16666 12.8337 3.77833 12.8337 6.99999C12.8337 10.2217 10.222 12.8333 7.00033 12.8333C3.77867 12.8333 1.16699 10.2217 1.16699 6.99999C1.16699 3.77833 3.77867 1.16666 7.00033 1.16666Z" fill="#00B42A"/>
<path fill-rule="evenodd" clip-rule="evenodd" d="M9.14096 5.01194L9.47611 5.29316C9.66128 5.44838 9.68542 5.72433 9.53011 5.90943C9.53008 5.90946 9.53006 5.90949 9.52994 5.90944L6.60396 9.39457C6.44853 9.57951 6.17264 9.60361 5.9875 9.44842L5.31721 8.88598L8.52451 5.06578C8.67993 4.88084 8.95583 4.85674 9.14096 5.01194Z" fill="white"/>
<path fill-rule="evenodd" clip-rule="evenodd" d="M4.19314 7.32433L4.48668 6.99832C4.64581 6.82159 4.91696 6.80433 5.09721 6.95947L7.15505 8.73065L6.59516 9.40433C6.44073 9.59016 6.16489 9.6156 5.97906 9.46117C5.97677 9.45926 5.9745 9.45733 5.97225 9.45538L4.23181 7.94776C4.04918 7.78956 4.02938 7.51326 4.18758 7.33063C4.18941 7.32851 4.19126 7.32641 4.19314 7.32433Z" fill="white"/>
</svg>
