<svg width="14" height="14" viewBox="0 0 14 14" fill="none" xmlns="http://www.w3.org/2000/svg">
<rect opacity="0.01" x="0.333333" y="0.333333" width="13.3333" height="13.3333" stroke="#F0F0F0" stroke-width="0.666667"/>
<path d="M6.99995 13.4159C3.45612 13.4159 0.583282 10.543 0.583282 6.99919C0.583282 3.45536 3.45612 0.58252 6.99995 0.58252C10.5438 0.58252 13.4166 3.45536 13.4166 6.99919C13.4166 10.543 10.5438 13.4159 6.99995 13.4159Z" fill="white"/>
<path fill-rule="evenodd" clip-rule="evenodd" d="M6.99995 13.4159C3.45612 13.4159 0.583282 10.543 0.583282 6.99919C0.583282 3.45536 3.45612 0.58252 6.99995 0.58252C10.5438 0.58252 13.4166 3.45536 13.4166 6.99919C13.4166 10.543 10.5438 13.4159 6.99995 13.4159ZM6.1833 10.1492C6.1833 9.69815 6.54893 9.33252 6.99996 9.33252C7.45099 9.33252 7.81663 9.69815 7.81663 10.1492C7.81663 10.6002 7.45099 10.9659 6.99996 10.9659C6.54893 10.9659 6.1833 10.6002 6.1833 10.1492ZM6.21963 3.68084C6.1833 3.75214 6.1833 3.84548 6.1833 4.03217V7.92384C6.1833 8.11052 6.1833 8.20386 6.21963 8.27517C6.25158 8.33789 6.30258 8.38888 6.3653 8.42084C6.4366 8.45717 6.52994 8.45717 6.71663 8.45717H7.2833C7.46998 8.45717 7.56332 8.45717 7.63463 8.42084C7.69735 8.38888 7.74834 8.33789 7.7803 8.27517C7.81663 8.20386 7.81663 8.11052 7.81663 7.92384V4.03217C7.81663 3.84548 7.81663 3.75214 7.7803 3.68084C7.74834 3.61812 7.69735 3.56712 7.63463 3.53517C7.56332 3.49884 7.46998 3.49884 7.2833 3.49884H6.71663C6.52994 3.49884 6.4366 3.49884 6.3653 3.53517C6.30258 3.56712 6.25158 3.61812 6.21963 3.68084Z" fill="#FF8B07"/>
</svg>
