<?xml version="1.0" standalone="no"?><!DOCTYPE svg PUBLIC "-//W3C//DTD SVG 1.1//EN" "http://www.w3.org/Graphics/SVG/1.1/DTD/svg11.dtd"><svg t="1716208289245" class="icon" viewBox="0 0 1718 1024" version="1.1" xmlns="http://www.w3.org/2000/svg" p-id="2921" xmlns:xlink="http://www.w3.org/1999/xlink" width="335.546875" height="200"><path d="M921.598797 36.048708A35.989612 35.989612 0 0 1 885.569787 71.998923h-143.899351a35.979763 35.979763 0 1 1 0-71.959526H885.569787a36.009311 36.009311 0 0 1 36.02901 36.009311z m195.943443 0c0 19.876036-11.346479 35.969913-25.33259 35.969913h-101.271261c-14.00581 0-25.33259-16.113576-25.33259-35.969913s11.32678-36.048708 25.33259-36.048708h101.271261c14.00581 0 25.33259 16.113576 25.33259 35.989612z m219.936518 145.948022a41.978031 41.978031 0 0 1-41.99773 41.99773H879.660163a41.987881 41.987881 0 0 1 0-83.975762h415.820865a41.978031 41.978031 0 0 1 41.99773 41.978032z m111.967681 149.946867a40.008157 40.008157 0 0 1-40.008156 40.008156h-627.799088a39.998307 39.998307 0 0 1 0-79.996614h627.799088a40.027855 40.027855 0 0 1 40.027855 39.988458z m35.989612 141.968874a41.99773 41.99773 0 0 1-41.99773 41.99773h-115.986226a41.99773 41.99773 0 0 1 0-83.99546h115.986226a41.978031 41.978031 0 0 1 41.99773 41.99773z m-231.952753 0c0 23.205125-27.932824 41.99773-62.464729 41.99773H388.176409c-34.472808 0-62.425331-18.792605-62.425332-41.99773S353.7036 431.93444 388.176409 431.93444h802.861858c34.531905 0 62.464729 18.792605 62.464729 41.99773z m0 0" fill="#fee46b" p-id="2922"></path><path d="M569.68067 559.877806a43.987304 43.987304 0 0 1-44.007003 44.007002h-59.982686a43.987304 43.987304 0 1 1 0-87.974607h59.982686a43.987304 43.987304 0 0 1 44.007003 43.967605z m0 0" fill="#E4EEF2" p-id="2923"></path><path d="M1001.575712 645.86284a47.986149 47.986149 0 0 1-47.986149 48.005848H265.768391a47.986149 47.986149 0 0 1-41.564358-23.993075 47.946752 47.946752 0 0 1 0-47.986149 47.986149 47.986149 0 0 1 41.564358-23.993075h687.801473a47.986149 47.986149 0 0 1 47.98615 47.98615z m615.841949 169.547121a47.572476 47.572476 0 0 1-47.552777 47.552777H997.143494a47.572476 47.572476 0 0 1 0-95.125253h572.701691a47.592174 47.592174 0 0 1 47.572476 47.552777z m0 0" fill="#fee46b" p-id="2924"></path><path d="M1137.536469 897.37645a34.413712 34.413712 0 0 1-34.433411 34.374315H1055.963955a34.423562 34.423562 0 1 1 0-68.847123h47.139103a34.45311 34.45311 0 0 1 34.433411 34.413712z m0 0M1521.465061 966.085682a34.29552 34.29552 0 0 1-34.334917 34.29552H847.886083a34.29552 34.29552 0 0 1 0-68.59104h639.244061a34.315218 34.315218 0 0 1 34.334917 34.29552z m131.981609 0a34.29552 34.29552 0 0 1-34.275821 34.29552h-27.381259a34.29552 34.29552 0 1 1 0-68.59104h27.381259a34.29552 34.29552 0 0 1 34.275821 34.29552z m0 0" fill="#fee46b" p-id="2925"></path><path d="M1232.740516 55.274686h-600.614816s-46.193563-5.771733-49.108978 54.861012 0 696.528019 0 779.223362c-0.965239 67.527307 82.73474 82.242272 112.61774 43.790316 40.441529-49.06958 14.439182-106.846007 5.791432-109.761422s563.108401 0 563.108401 0V133.242329s7.879499-78.125233-31.793779-77.967643z m0 0" fill="#FFFFFF" p-id="2926"></path><path d="M648.593853 961.495874c-20.703384 0-40.323336-7.879499-53.816979-21.570129-12.843583-13.040571-19.50176-30.572456-19.206279-50.665179 0-18.497124-0.137891-65.005867-0.334878-126.840236-0.669757-211.584249-1.969875-605.460708 0.334878-652.639209 2.186561-45.819287 29.016255-62.12985 53.383606-62.12985a33.724256 33.724256 0 0 1 4.117039 0.216686h599.688975a31.517996 31.517996 0 0 1 24.288556 10.69642c20.092723 22.200489 15.128638 73.279341 14.911952 75.387107v696.921994h-7.505223s-254.113845-1.300117-420.942539-1.300117c-75.623492 0-111.278226 0.275782-127.706981 0.571263a90.614239 90.614239 0 0 1 5.259566 13.789124 102.157705 102.157705 0 0 1-19.698748 93.884231c-11.602562 14.951349-30.907335 23.638497-52.812343 23.638497z m-19.698748-898.912953c-10.873709 0-36.383587 4.688302-38.471654 47.907355-2.186561 46.804224-0.94554 440.4246-0.334879 651.851259 0.196987 61.775273 0.334879 108.343112 0.334879 126.997826-0.236385 16.133274 4.924687 29.942096 14.911952 40.067253a60.691842 60.691842 0 0 0 43.199354 17.118211c17.275802 0 32.266549-6.539984 41.150684-17.984956a86.339611 86.339611 0 0 0 19.935132-65.734721c-1.969875-18.280438-9.041725-30.82854-11.464671-32.71962a7.07185 7.07185 0 0 1-4.176134-7.879499c0.47277-2.935113 0.748552-4.708001 9.849373-5.791432 14.124002-1.694092 49.483254-1.694092 139.723218-1.694092 149.927168 0 370.336456 1.044034 413.496412 1.241021V133.242329c1.359214-13.670931 1.969875-50.349999-11.110094-64.730085a16.606044 16.606044 0 0 0-13.099667-5.771733H632.1257c-1.044034 0-1.969875-0.137891-3.171499-0.137891z m0 0" fill="#000333" p-id="2927"></path><path d="M660.767679 186.70473h528.340111v145.160072H660.767679z m0 195.017602h500.092107v31.281612H660.767679z m0 77.297886H924.967283v31.281611H660.767679z m0 90.299059h434.77106v31.281612H660.767679z m0 89.767194h319.986457v31.281611H660.767679z m778.829386 119.925975c12.981475 12.961776 16.645442 30.651251 8.194679 39.515688s-25.805359 5.515649-38.747436-7.465825l-124.496085-124.555182c-12.942077-12.961776-16.625743-30.67095-8.155282-39.515687s25.785661-5.515649 38.708039 7.465825z m0 0" fill="#fee46b" p-id="2928"></path><path d="M1435.164847 807.136487c-9.534194 0-20.28971-5.042879-28.720774-13.513341l-124.496085-124.555181c-14.616471-14.616471-18.221342-34.275821-8.214378-44.735856 9.514495-10.06606 30.079988-6.559683 44.0464 7.426427l124.476386 124.555182c14.616471 14.596772 18.260739 34.236423 8.253776 44.716157a20.506396 20.506396 0 0 1-15.365024 6.126311z m-146.085912-181.464864a13.395148 13.395148 0 0 0-9.849374 3.78216c-6.973357 7.268838-3.250293 22.988439 8.076486 34.334917l124.496086 124.555182c7.07185 7.07185 15.758998 11.307081 23.441509 11.307081a13.473943 13.473943 0 0 0 9.770579-3.821557c6.953658-7.288537 3.210896-22.988439-8.115884-34.29552l-124.476386-124.57488c-7.07185-7.091549-15.758998-11.32678-23.461209-11.32678z m0 0" fill="#000333" p-id="2929"></path><path d="M1273.930598 630.359925c-9.534194 2.856318 3.545775-5.555047-1.162227 6.14601-1.713791 10.06606 2.383548 18.457727 9.987266 26.159937l118.192486 120.260854c12.173826 12.42991 36.501779 25.037108 42.4705 17.551584 0.610661-0.78795 1.300117-1.477406 1.969874-2.245657z m0 0" fill="#000333" p-id="2930"></path><path d="M1294.633981 410.85678a175.200662 175.200662 0 1 0 0 247.790547 175.318854 175.318854 0 0 0 0-247.790547" fill="#FFFFFF" p-id="2931"></path><path d="M1170.787955 717.310198a182.567993 182.567993 0 1 1 129.105592-53.462402 181.52396 181.52396 0 0 1-129.125291 53.403305z m0-350.184638A167.656041 167.656041 0 1 0 1289.394115 416.155743a166.592309 166.592309 0 0 0-118.527365-49.030183z m0 0" fill="#000333" p-id="2932"></path><path d="M1266.957241 494.931035h-21.451936v-7.465825h21.451936z m-43.849412 0H1200.74975v-7.465825h22.397476z m-44.775254 0h-22.397476v-7.465825h22.397476z m-44.794952 0h-22.377777v-7.465825h22.377777z m-44.755555 0h-22.397476v-7.465825h22.397476z m122.861089-61.066118h-22.397476v-7.465825h22.397476z m-44.775253 0h-22.397476v-7.465825h22.397476z m-44.775253 0h-22.417175v-7.465825h22.397476z m165.587672 140.94454H1266.740555v-7.485524h20.939768z m-43.337244 0h-22.377778v-7.485524h22.377778z m-44.775254 0H1177.111253v-7.485524h22.456572z m-44.775253 0H1132.395096v-7.485524h22.397476z m-44.794953 0h-22.377777v-7.485524h22.377777z m-44.755554 0h-22.417175v-7.485524h22.397476z m155.501914 74.855241h-22.417175v-7.485524h22.397476z m-44.794952 0H1153.472756v-7.485524h22.456572z m-44.755555 0H1108.756598v-7.485524h22.397476z m0 0" fill="#999999" p-id="2933"></path><path d="M693.093324 818.266279s54.939807 103.418425-47.395187 135.783468c114.646711-1.024335 659.612566 2.856318 659.612566 2.856318s43.337245-26.987284 55.156493-56.318719-8.667449-70.698805-26.002347-82.73474c-37.860993-3.683666-641.470019 0.433372-641.470019 0.433372z m0 0" fill="#EEEEEE" p-id="2934"></path><path d="M1306.374435 960.629129h-1.083431c-4.235231 0-425.729335-3.013908-602.4468-3.013909-23.638497 0-43.002366 0-56.535406 0.15759h-0.196987l-6.067215-0.669757-0.47277-3.604871 0.196988-3.545774h3.900352l1.654695 0.177288c27.105477-8.726545 45.051036-23.461208 53.363907-43.73122 15.916588-38.865629-8.667449-86.024431-8.903834-86.497201l-2.895716-5.436854h6.14601c2.895716 0 290.655022-1.969875 479.11294-1.969875 97.430006 0 152.212223 0.512167 162.770752 1.536503l0.965239 0.098493 0.807649 0.551565c19.245676 13.355751 39.653579 56.830887 27.322163 87.206356s-54.90041 56.94908-56.732394 58.091607z m-603.530231-10.479734c172.285247 0 577.173307 2.83662 601.402766 3.013908 6.185407-3.93975 42.450801-28.405594 52.871439-53.994267 11.149491-27.578247-8.529558-66.207491-23.874882-77.71156-12.449609-0.94554-66.621165-1.41831-161.037262-1.418309-173.467172 0-431.087394 1.654695-473.163919 1.969874 6.303599 14.124002 20.703384 52.910836 6.638478 87.344248-7.170344 17.551584-20.644288 31.242214-40.185446 40.8946h37.427621z m0 0" fill="#000333" p-id="2935"></path><path d="M1681.399193 269.498567a54.74282 54.74282 0 0 1-55.156493 54.309447H1384.913342a54.74282 54.74282 0 0 1-55.156494-54.309447v-18.39863a54.762519 54.762519 0 0 1 55.156494-54.309448H1626.2427a54.762519 54.762519 0 0 1 55.156493 54.309448z m0 0" fill="#FFFFFF" p-id="2936"></path><path d="M1626.2427 326.605236H1384.913342a57.599138 57.599138 0 0 1-57.953716-57.126368v-18.39863a57.599138 57.599138 0 0 1 57.953716-57.126368H1626.2427a57.599138 57.599138 0 0 1 57.953715 57.126368v18.39863a57.618837 57.618837 0 0 1-57.953715 57.126368z m-241.329358-127.017525a51.984995 51.984995 0 0 0-52.339573 51.512226v18.39863a51.984995 51.984995 0 0 0 52.339573 51.59102H1626.2427a51.984995 51.984995 0 0 0 52.339572-51.512225v-18.39863A51.984995 51.984995 0 0 0 1626.2427 199.587711z m0 0" fill="#000333" p-id="2937"></path><path d="M1433.86473 380.6586l21.117057-59.569013h78.046439z m25.076506-54.053364l-14.596772 41.229479 68.492545-41.229479z m0 0" fill="#000333" p-id="2938"></path><path d="M1455.040884 337.853221l8.33257-23.933978 23.008137-4.648905 23.421811 5.003482 7.879499 3.821557 7.741608 0.906143-39.397495 23.638497z m1.516803 0" fill="#FFFFFF" p-id="2939"></path><path d="M1429.255223 258.368774a16.822731 16.822731 0 1 1-16.822731-16.310563 16.822731 16.822731 0 0 1 16.822731 16.310563z m101.44855 0a16.842429 16.842429 0 1 1-16.82273-16.310563 16.822731 16.822731 0 0 1 16.82273 16.310563z m101.448551 0a16.842429 16.842429 0 1 1-16.803032-16.310563 16.822731 16.822731 0 0 1 16.803032 16.310563z m0 0" fill="#000333" p-id="2940"></path></svg>